PathFileType	4	(X/Y/Z)	E:\Qualisys_Data\Carbon_Farble_Plate\Data\Amateur_Runner\S2\T1\S2T1V11_c3d.trc
DataRate	CameraRate	NumFrames	NumMarkers	Units	OrigDataRate	OrigDataStartFrame	OrigNumFrames
200.000000	200.000000	4	39	mm	200.000000	205	328
Frame#	Time	LSHO			RSHO			LICST			RICST			LASIS			LHEEL			RASIS			LTROC			RTROC			SACR			LTH1			LSK4			LTH2			LTH3			RHM5			LSK2			LTH4			RTH1			LTOE			RTH2			RTH3			RTH4			LLEP			RLEP			LSK1			LSK3			RSK1			LHM5			RSK2			LFT1			RSK3			RSK4			LLME			RLME			RTOE			RHEEL			RFT1			RFT2			LFT2			
		X1	Y1	Z1	X2	Y2	Z2	X3	Y3	Z3	X4	Y4	Z4	X5	Y5	Z5	X6	Y6	Z6	X7	Y7	Z7	X8	Y8	Z8	X9	Y9	Z9	X10	Y10	Z10	X11	Y11	Z11	X12	Y12	Z12	X13	Y13	Z13	X14	Y14	Z14	X15	Y15	Z15	X16	Y16	Z16	X17	Y17	Z17	X18	Y18	Z18	X19	Y19	Z19	X20	Y20	Z20	X21	Y21	Z21	X22	Y22	Z22	X23	Y23	Z23	X24	Y24	Z24	X25	Y25	Z25	X26	Y26	Z26	X27	Y27	Z27	X28	Y28	Z28	X29	Y29	Z29	X30	Y30	Z30	X31	Y31	Z31	X32	Y32	Z32	X33	Y33	Z33	X34	Y34	Z34	X35	Y35	Z35	X36	Y36	Z36	X37	Y37	Z37	X38	Y38	Z38	X39	Y39	Z39	

206	1.025	391.4168090820312	1432.195068359375	-433.1402587890625	423.2347717285156	1398.384765625	-111.2664108276367	353.5655517578125	968.2152099609376	-435.0790405273438	370.2770385742188	952.839599609375	-131.0014953613281	413.3683166503906	920.5355834960938	-419.0805969238281	110.1752014160156	305.6350402832031	-338.7186889648438	428.9588317871094	908.3009643554688	-158.1791076660156	289.1347045898438	841.14892578125	-436.3022766113281	279.8074645996094	853.7212524414062	-130.2652130126953	270.0389404296875	1002.737976074219	-278.4486999511719	487.2413024902344	636.8551635742188	-458.68505859375	273.7957458496094	398.9697570800781	-428.999267578125	407.1520690917969	610.4947509765625	-457.9230651855469	518.6053466796875	539.4341430664062	-443.2284240722656	214.5307312011719	55.58254623413086	-179.3952331542969	358.0592041015625	450.1885070800781	-446.0647277832031	436.3378601074219	514.7853393554688	-438.9031066894531	408.63037109375	585.1272583007812	-139.5020751953125	243.0612640380859	107.1285934448242	-392.1410522460938	331.2486267089844	588.6338500976562	-133.2272796630859	402.0149230957031	486.7659606933594	-166.62744140625	322.4736938476562	494.4870300292969	-156.7254333496094	480.4883117675781	482.1008605957031	-446.0328979492188	345.6651916503906	453.8832092285156	-157.9677581787109	399.7759704589844	382.318359375	-445.6286315917969	314.2371826171875	330.4736938476562	-432.2706298828125	318.4939270019531	330.494384765625	-165.2163238525391	190.3059844970703	143.3001556396484	-445.0676879882812	253.9320678710938	376.0278015136719	-147.1934661865234	101.8533020019531	281.1597900390625	-307.227783203125	258.3892822265625	248.7797546386719	-178.3701782226562	196.0617065429688	295.2145080566406	-160.7920074462891	147.9154815673828	271.1457824707031	-402.1681823730469	115.0151138305664	130.4606781005859	-198.8934326171875	265.8221130371094	50.27063369750977	-250.5763549804688	43.43635559082031	133.5249328613281	-250.8089904785156	47.20303726196289	101.5513763427734	-281.4800109863281	37.02893829345703	110.0239334106445	-225.0574951171875	85.31266021728516	288.3475341796875	-361.2515563964844
207	1.03	405.4239807128906	1436.402099609375	-433.3715515136719	441.5278015136719	1403.0224609375	-112.1892318725586	370.2380676269531	972.9927368164062	-435.293701171875	388.0045166015625	956.196044921875	-131.3508911132812	430.0309448242188	924.9180297851562	-418.9534606933594	137.3585052490234	296.559814453125	-338.017822265625	446.0005493164062	911.3675537109376	-158.4878692626953	306.3976135253906	845.5829467773438	-436.9080200195312	295.8571166992188	858.4734497070312	-131.1567535400391	287.1362915039062	1006.834228515625	-277.7528991699219	506.6336669921875	643.1389770507812	-457.6752624511719	297.5662536621094	396.9080200195312	-428.2398986816406	427.0377502441406	615.5280151367188	-457.3956298828125	539.7655639648438	546.28857421875	-441.6916809082031	215.6760711669922	56.18838119506836	-179.0529937744141	380.080078125	451.0370788574219	-444.952880859375	457.6441345214844	520.6439208984375	-438.2173461914062	418.855712890625	587.9227294921875	-138.9515228271484	279.3262023925781	104.3485870361328	-390.9153137207031	341.1693420410156	593.4680786132812	-133.6504211425781	409.5080261230469	489.6778869628906	-166.4332885742188	330.21533203125	499.5416870117188	-156.0958404541016	501.6227111816406	488.0357360839844	-444.8547973632812	351.20361328125	459.0886840820312	-155.9177398681641	424.1371154785156	384.8211669921875	-444.6018676757812	340.9114379882812	330.1717224121094	-431.4202270507812	323.8483276367188	335.2344055175781	-163.4241180419922	224.8796234130859	138.2212829589844	-444.0658569335938	259.4366760253906	381.0896911621094	-146.2389373779297	129.76904296875	271.9231567382812	-306.5712890625	263.2028198242188	253.6014251708984	-176.6696319580078	201.1368865966797	300.9810180664062	-159.9375762939453	176.7753448486328	264.1024169921875	-401.2151184082031	118.8188171386719	135.3260955810547	-197.8222351074219	266.4902954101562	50.22543334960938	-250.1996307373047	47.3897819519043	139.5638732910156	-249.9354095458984	50.88713455200195	108.3357696533203	-280.7483520507812	40.40634918212891	116.0198974609375	-224.2311706542969	113.0843734741211	278.3377075195312	-360.6766967773438
208	1.035	419.5570983886719	1440.73388671875	-433.3027954101562	459.4456787109375	1407.653930664062	-113.0768585205078	386.9721984863281	977.7731323242188	-435.3036193847656	405.5503540039062	959.715087890625	-131.8039398193359	446.4884643554688	929.6673583984376	-419.1958618164062	164.5931243896484	287.6654968261719	-337.145263671875	463.2730102539062	914.6270141601562	-158.4105987548828	323.6951293945312	850.3610229492188	-438.0644836425781	312.2168273925781	862.9497680664062	-131.5177764892578	303.9514770507812	1011.264587402344	-276.8040771484375	526.136962890625	649.4578247070312	-457.1269836425781	321.7123107910156	393.9123840332031	-427.8458557128906	446.8539428710938	621.1746215820312	-457.8663330078125	560.2777099609375	552.9450073242188	-439.8504333496094	216.4911193847656	56.59693908691406	-178.5437469482422	401.944091796875	451.6705627441406	-444.6574401855469	478.5689392089844	526.571533203125	-437.7372436523438	429.22216796875	591.0736083984375	-138.6136779785156	315.5432434082031	102.2844619750977	-389.866943359375	351.8036193847656	598.8787231445312	-133.3729553222656	417.3647766113281	493.1319885253906	-165.6023101806641	338.2166442871094	504.602294921875	-155.3879852294922	522.2844848632812	494.1131286621094	-443.3653259277344	358.5049133300781	463.6705932617188	-155.1734161376953	448.355712890625	387.5823669433594	-443.33544921875	368.0173950195312	328.8125915527344	-430.6351623535156	329.5355224609375	340.275390625	-161.6065673828125	259.9481811523438	132.9907379150391	-442.9773864746094	265.3128356933594	386.7366027832031	-145.3809814453125	159.0916290283203	259.0074462890625	-309.22998046875	268.0400695800781	258.9357604980469	-174.5333099365234	206.5220642089844	306.9826354980469	-158.4800262451172	206.224365234375	256.6992492675781	-400.2469787597656	123.7390594482422	139.7130737304688	-196.9194793701172	267.6491088867188	50.4540901184082	-249.5655670166016	52.32100296020508	146.5352020263672	-248.6321563720703	55.25575256347656	115.4331436157227	-279.7098999023438	44.32136154174805	123.0198745727539	-223.6431732177734	141.5560150146484	267.9590759277344	-359.8246154785156
209	1.04	433.8521118164062	1444.823364257812	-433.4803771972656	477.5226440429688	1412.303955078125	-114.316535949707	403.6087646484375	982.55029296875	-435.4727172851562	423.5310363769531	963.3235473632812	-132.2471160888672	463.1104125976562	934.230224609375	-418.8692321777344	192.7983245849609	278.3680725097656	-336.3867797851562	480.6441345214844	917.892333984375	-158.848876953125	340.8580017089844	855.1271362304688	-438.9376525878906	328.7028198242188	867.5281982421875	-131.9641265869141	320.953369140625	1015.198669433594	-276.1449584960938	545.744384765625	655.724853515625	-456.2850646972656	345.562744140625	390.9969787597656	-427.47998046875	466.5826721191406	626.5609741210938	-457.4607238769531	580.3695678710938	559.8834228515625	-438.533447265625	217.559326171875	56.92454528808594	-178.2064514160156	423.4761352539062	452.0167236328125	-444.1632690429688	499.2455444335938	532.5686645507812	-437.3189086914062	439.5962219238281	593.927490234375	-138.5515289306641	352.0381774902344	100.2099456787109	-388.357177734375	362.6035461425781	603.7938842773438	-132.8524627685547	425.5578002929688	496.3670043945312	-164.9859771728516	347.06103515625	509.7824401855469	-154.0710296630859	542.4427490234375	500.0696716308594	-442.5084533691406	365.9925231933594	468.6259155273438	-153.3433685302734	472.2638244628906	389.616943359375	-442.0713195800781	394.4185485839844	328.0493774414062	-429.1998291015625	335.921630859375	345.3448486328125	-159.444580078125	294.8895874023438	128.2391662597656	-441.8251037597656	271.3740234375	392.1265563964844	-144.0416870117188	187.3368377685547	250.3212280273438	-308.5938110351562	273.0111694335938	263.4200744628906	-171.2012481689453	212.5106964111328	312.8995666503906	-157.1655731201172	235.5583190917969	249.1611175537109	-399.4012145996094	128.8594970703125	145.2468109130859	-195.7037353515625	267.9916687011719	50.54738616943359	-249.1843109130859	57.89229965209961	153.7798156738281	-247.2299499511719	60.10163497924805	123.3416061401367	-278.6116638183594	49.53600692749023	130.3972320556641	-222.3847351074219	170.4067077636719	257.8479614257812	-358.9390869140625
